<?xml version="1.0" encoding="utf-8"?>
<!-- Generator: Adobe Illustrator 23.0.2, SVG Export Plug-In . SVG Version: 6.00 Build 0)  -->
<svg version="1.1" id="Camada_1" xmlns="http://www.w3.org/2000/svg" xmlns:xlink="http://www.w3.org/1999/xlink" x="0px" y="0px"
	 viewBox="0 0 578.9 99.8" style="enable-background:new 0 0 578.9 99.8;" xml:space="preserve">
<style type="text/css">
	.st0{fill:#FFFFFF;}
	.st1{fill:#FF0000;}
	.st2{fill:#FAD424;}
</style>
<g>
	<g>
		<g>
			<g>
				<path class="st0" d="M167.5,26.1c2.7,1.5,4.4,4.2,4.4,7.1c0,3.8-2.8,7-6.2,7c-1.4,0-1.8-0.1-5.6-1.6c-2.2-0.8-3.9-1.2-5.6-1.2
					c-6.7,0-11.5,5.6-11.5,13.5c0,8.1,4.8,13.4,11.9,13.4c1.9,0,4-0.5,6.2-1.5c2.7-1.3,3.1-1.4,4.5-1.4c3.6,0,6.5,3.1,6.5,7.1
					c0,2.1-1.2,4.3-3,5.7c-3.7,2.8-9.8,4.6-15.6,4.6c-7.6,0-14-2.8-18.9-8.1c-5-5.4-7.1-11.4-7.1-20.1c0-8.5,2.9-15.9,8.1-20.6
					c5-4.6,12-7.2,18.6-7.2C158.8,22.9,163.9,24.1,167.5,26.1z"/>
				<path class="st0" d="M225.9,56.8c0,5.5-1.2,9.6-3.8,12.8c-4.5,5.7-12.2,9.2-20.4,9.2c-8.2,0-15.9-3.5-20.4-9.2
					c-2.7-3.3-3.8-7.3-3.8-12.8V33.6c0-3.7,0.1-4.7,1.1-6.5c1.2-2.3,3.9-3.9,6.8-3.9c2.8,0,5.5,1.6,6.7,3.9c1,1.8,1.1,2.7,1.1,6.5
					v21.2c0,3.3,0.6,4.9,2.4,6.7c1.7,1.6,3.8,2.4,6.2,2.4c2.3,0,4.5-0.8,6.2-2.4c1.8-1.8,2.4-3.4,2.4-6.7V33.6
					c0-3.7,0.1-4.7,1.1-6.5c1.2-2.3,3.9-3.9,6.8-3.9c2.8,0,5.5,1.6,6.7,3.9c1,1.8,1.1,2.7,1.1,6.5V56.8z"/>
				<path class="st0" d="M235.1,32.5c0-5.7,2.9-9.2,7.5-9.2c3.6,0,5.5,1.5,7.5,5.9c4.1-4.6,8-6.3,13.9-6.3c12.9,0,23,12,23,27.5
					c0,16.2-10.3,28.5-24,28.5c-4.9,0-7.9-1.1-12.4-4.6v15.1c0,3.8-0.1,4.8-1.1,6.5c-1.2,2.3-3.9,3.9-6.7,3.9
					c-2.9,0-5.6-1.6-6.8-3.9c-1-1.8-1.1-2.7-1.1-6.5V32.5z M250.3,50.7c0,8.1,4.2,13.6,10.5,13.6c6,0,10.7-5.8,10.7-13.5
					c0-7.5-4.7-13.4-10.7-13.4C254.6,37.5,250.3,43,250.3,50.7z"/>
				<path class="st0" d="M335.9,31.4c4.6,5,7,11.9,7,19.5c0,15.9-11.1,27.9-26,27.9c-7.2,0-14.3-3.2-19.1-8.5
					c-4.7-5.1-7-11.8-7-19.8c0-15.5,11.4-27.6,26.1-27.6C324,22.9,331.1,26.1,335.9,31.4z M306.1,50.7c0,7.9,4.5,13.6,10.4,13.6
					c6.2,0,10.9-5.9,10.9-13.5c0-7.4-4.8-13.4-10.9-13.4C310.7,37.5,306.1,43.3,306.1,50.7z"/>
				<path class="st0" d="M349.4,32.4c0-5.5,3.2-9.1,8-9.1c3.5,0,5.7,1.6,7.2,5.4c4.6-4.2,8.3-5.7,14.3-5.7c5.4,0,10,1.6,13.6,4.7
					c4.1,3.7,5.6,7.5,5.6,15v25.6c0,3.7-0.1,4.7-1.1,6.5c-1.2,2.3-3.9,3.9-6.7,3.9c-2.9,0-5.6-1.6-6.8-3.9c-1-1.8-1.1-2.7-1.1-6.5
					V46.3c0-6-3.4-9.9-8.7-9.9c-5,0-8.8,4-8.8,9.2v22.5c0,3.7-0.1,4.7-1.1,6.5c-1.2,2.3-3.9,3.9-6.7,3.9c-2.9,0-5.6-1.6-6.8-3.9
					c-1-1.8-1.1-2.7-1.1-6.5V32.4z"/>
				<path class="st0" d="M421.3,56c2.3,6.3,6.3,9.2,12.4,9.2c3.7,0,4.7-0.3,12.8-4.4c1-0.4,2.2-0.7,3.4-0.7c3.2,0,6.3,3.1,6.3,6.4
					c0,6.4-11.4,12.3-23.3,12.3c-16.7,0-28.3-11.3-28.3-27.2c0-16.6,11.4-28.8,26.7-28.8c14.5,0,25.9,11.8,25.9,27
					c0,4.4-2,6.2-6.8,6.2H421.3z M441.7,45.4c-0.7-3-1.3-4.2-2.2-5.7c-1.8-2.5-4.8-4-8-4c-5.2,0-8.6,3-10.8,9.8H441.7z"/>
				<path class="st0" d="M463.4,32.2c0-5.4,3.1-8.9,7.9-8.9c3.5,0,6,1.8,7.7,5.5c4.4-4.3,7.1-5.8,10.7-5.8c4.5,0,8,3.6,8,8.1
					c0,3.7-1.6,5.2-8,7.1c-8.5,2.9-10.9,5.2-10.7,10.4v19.6c0,3.7-0.1,4.7-1.1,6.5c-1.2,2.3-3.9,3.9-6.7,3.9c-2.9,0-5.6-1.6-6.8-3.9
					c-1-1.8-1.1-2.7-1.1-6.5V32.2z"/>
				<path class="st0" d="M502.4,33.6c0-3.7,0.1-4.7,1.1-6.5c1.2-2.3,3.9-3.9,6.8-3.9c2.8,0,5.5,1.6,6.7,3.9c1,1.8,1.1,2.7,1.1,6.5
					v34.5c0,3.7-0.1,4.7-1.1,6.5c-1.2,2.3-3.9,3.9-6.7,3.9c-2.9,0-5.6-1.6-6.8-3.9c-1-1.8-1.1-2.7-1.1-6.5V33.6z"/>
				<path class="st0" d="M578.9,69.3c0,5.5-3.2,9.2-7.9,9.2c-3.7,0-6.3-2-7.9-6.2c-3.9,4.9-7.1,6.5-12.8,6.5s-10.9-2-15.4-5.9
					c-6.2-5.4-9.2-12.8-9.2-22.3c0-8.6,2.5-15.1,8.2-20.6c4.7-4.7,10.2-7.1,16.2-7.1c5.5,0,8.8,1.6,13.3,6.2c1.7-4.1,4-5.8,7.7-5.8
					c4.4,0,7.7,3.5,7.7,8V69.3z M541.4,50.7c0,8.2,4.2,13.6,10.8,13.6c6.4,0,10.7-5.5,10.7-13.5c0-8-4.4-13.4-10.8-13.4
					C545.7,37.5,541.4,42.9,541.4,50.7z"/>
			</g>
			<path class="st0" d="M519.4,9c0,5.1-4,9.1-9,9.1c-5.1,0-9.1-4-9.1-9.1c0-5,4.1-9,9.2-9C515.3,0,519.4,4.1,519.4,9z"/>
		</g>
	</g>
	<g>
		<g>
			<circle class="st1" cx="49.9" cy="49.9" r="49.9"/>
			<g>
				<g>
					<path class="st2" d="M7.1,75.6c2.5-1.5,4.9-2.9,7.3-4.4c1.8,2.9,3.8,5.5,6.2,7.9c2.4,2.4,5,4.4,7.9,6.2
						c-1.5,2.5-2.9,4.9-4.4,7.3C17.1,88.3,11.5,82.7,7.1,75.6z"/>
					<path class="st2" d="M24.1,7.1c1.5,2.5,2.9,4.9,4.4,7.3c-5.8,3.6-10.5,8.2-14.1,14.1c-2.4-1.5-4.9-2.9-7.4-4.4
						C11.4,17.1,17.1,11.5,24.1,7.1z"/>
					<path class="st2" d="M71.2,14.5c1.5-2.5,2.9-4.9,4.4-7.3c7.1,4.3,12.7,9.9,17,17c-2.5,1.5-4.9,2.9-7.3,4.4
						C81.7,22.8,77,18.1,71.2,14.5z"/>
					<path class="st2" d="M71.2,85.3c8-5.9,8-5.9,14.1-14.1c2.4,1.4,4.8,2.9,7.2,4.4c-1.6,4.5-11.2,14.1-16.9,17
						C74.1,90.2,72.7,87.8,71.2,85.3z"/>
				</g>
				<g>
					<path class="st2" d="M37.8,98.3c0.7-2.8,1.4-5.5,2.1-8.3c3.3,0.8,6.6,1.2,10,1.2c3.3,0,6.6-0.4,10-1.2c0.7,2.8,1.4,5.5,2.1,8.3
						C53.8,100.3,45.9,100.2,37.8,98.3z"/>
					<path class="st2" d="M98.3,61.9c-2.8-0.7-5.5-1.4-8.3-2.1c0.8-3.3,1.2-6.6,1.2-10c0-3.3-0.4-6.6-1.2-10
						c2.8-0.7,5.5-1.4,8.3-2.1C100.3,45.9,100.3,53.9,98.3,61.9z"/>
					<path class="st2" d="M39.9,9.8c-0.7-2.8-1.4-5.5-2.1-8.3c8-1.9,16-1.9,24.1,0c-0.7,2.8-1.4,5.5-2.1,8.3
						c-3.3-0.8-6.6-1.2-10-1.2C46.6,8.6,43.3,8.9,39.9,9.8z"/>
					<path class="st2" d="M1.4,37.9c2.8,0.7,5.5,1.4,8.3,2.1c-1.6,6.7-1.6,13.3,0,19.9c-2.8,0.7-5.5,1.4-8.3,2.1
						C-0.5,53.9-0.5,45.9,1.4,37.9z"/>
				</g>
			</g>
			<g>
				<path class="st0" d="M27.6,36.3c0-2.9,1-5.4,2.9-7.4s4.3-3,7.1-3c2.8,0,5.1,1,7.1,3.1c2,2,2.9,4.5,2.9,7.4c0,2.9-1,5.4-2.9,7.4
					c-2,2-4.3,3-7.1,3c-2.8,0-5.2-1-7.1-3C28.6,41.7,27.6,39.2,27.6,36.3z M34.3,36.3c0,1,0.3,1.9,1,2.6c0.7,0.7,1.4,1.1,2.3,1.1
					c0.9,0,1.7-0.4,2.4-1.1c0.7-0.7,1-1.6,1-2.6c0-1-0.3-1.9-1-2.6c-0.7-0.7-1.4-1.1-2.4-1.1s-1.7,0.4-2.4,1.1
					C34.6,34.4,34.3,35.2,34.3,36.3z M42.6,70.6c-0.7,1.2-1.5,2.2-2.2,2.7c-0.7,0.6-1.5,0.9-2.4,0.9c-1,0-1.9-0.3-2.6-1.1
					c-0.7-0.7-1-1.6-1-2.6c0-0.6,0.1-1.1,0.3-1.7c0.2-0.5,0.4-1.1,0.7-1.6L57,29.1c0.8-1.3,1.5-2.2,2.2-2.8c0.7-0.5,1.5-0.8,2.4-0.8
					c1.1,0,2,0.3,2.7,1c0.7,0.7,1.1,1.5,1.1,2.5c0,0.5-0.1,1-0.3,1.5c-0.2,0.6-0.5,1.2-0.8,1.8L42.6,70.6z M52.1,63.3
					c0-2.9,1-5.4,2.9-7.4s4.3-3,7.1-3c2.8,0,5.1,1,7.1,3c2,2,2.9,4.5,2.9,7.4c0,2.9-1,5.3-2.9,7.4c-2,2-4.3,3-7.1,3
					c-2.8,0-5.2-1-7.1-3C53,68.7,52.1,66.2,52.1,63.3z M58.8,63.3c0,1,0.3,1.9,1,2.6c0.7,0.7,1.5,1.1,2.4,1.1c0.9,0,1.7-0.4,2.4-1.1
					c0.7-0.7,1-1.6,1-2.6c0-1.1-0.3-1.9-1-2.7c-0.7-0.7-1.4-1.1-2.4-1.1c-0.9,0-1.7,0.4-2.4,1.1C59.1,61.3,58.8,62.2,58.8,63.3z"/>
			</g>
		</g>
	</g>
</g>
</svg>
